<svg xmlns="http://www.w3.org/2000/svg" viewBox="0 0 140 80">
  <defs>
    <style>
      .a {
        fill: #25202d;
      }

      .b {
        fill: #786a7f;
      }

      .c {
        font-size: 75px;
        fill: #b1aab5;
        font-family: Algerian;
        letter-spacing: 0.07em;
      }
    </style>
  </defs>
  <g>
    <ellipse class="a" cx="70" cy="40" rx="67" ry="38"/>
    <path class="b" d="M70,3c17.82,0,34.54,4,47.09,11.16C129.28,21.15,136,30.33,136,40s-6.72,18.85-18.91,25.84C104.54,73,87.82,77,70,77S35.46,73,22.91,65.84C10.72,58.85,4,49.67,4,40s6.72-18.85,18.91-25.84C35.46,7,52.18,3,70,3m0-2C32.44,1,2,18.46,2,40S32.44,79,70,79s68-17.46,68-39S107.56,1,70,1Z"/>
  </g>
  <text class="c" transform="translate(39 66.02)">IS</text>
</svg>
